# xmcd
#
# Track frame offsets:
#	150
#	18087
#	30457
#	49907
#	66620
#	89905
#	104305
#	121959
#	139677
#	154435
#	177623
#	188459
#	206251
#
# Disc length: 3048 seconds
#
# Revision: 1
# Processed by: cddbd v1.4PL0 Copyright (c) Steve Scherf et al.
# Submitted via: CDmax 1.8
#
DISCID=b70be60d
DTITLE=Vineyard Music Group - I Love Loving You (Live)
DYEAR=1900
DGENRE=Blues
TTITLE0=Hold On
TTITLE1=I Love Loving You
TTITLE2=I Would Do Anything
TTITLE3=When It's All Said And Done
TTITLE4=Sing Lord Sing
TTITLE5=Everything Will Give You Praise
TTITLE6=We Are Your Children
TTITLE7=I Delight In You
TTITLE8=You Direct My Steps
TTITLE9=Not Be Shaken
TTITLE10=Lord, Lord, Lord
TTITLE11=Come Lord
TTITLE12=Our Father
EXTD=
EXTT0=
EXTT1=
EXTT2=
EXTT3=
EXTT4=
EXTT5=
EXTT6=
EXTT7=
EXTT8=
EXTT9=
EXTT10=
EXTT11=
EXTT12=
PLAYORDER=
